<?xml version="1.0" encoding="UTF-8"?>
<svg version="1.1" xmlns="http://www.w3.org/2000/svg" width="103" height="102">
<path d="M0 0 C1.09328865 -0.01226624 1.09328865 -0.01226624 2.20866394 -0.02478027 C4.62127877 -0.04959476 7.03383479 -0.06614239 9.4465332 -0.08056641 C10.27227152 -0.08589008 11.09800983 -0.09121376 11.94877052 -0.09669876 C16.32163184 -0.12341649 20.69446477 -0.14279355 25.06738281 -0.15722656 C28.67864391 -0.17055135 32.28933802 -0.19837828 35.90039062 -0.23925781 C40.26760206 -0.28869333 44.63430028 -0.3133611 49.00177956 -0.32045364 C50.66150325 -0.32714798 52.3212163 -0.3423226 53.98077965 -0.36634445 C69.63590917 -0.57997434 69.63590917 -0.57997434 75.43000793 3.81234741 C80.71570139 9.10078814 81.93145725 13.7948146 81.97094727 21.03173828 C81.97839462 22.06891495 81.97839462 22.06891495 81.98599243 23.12704468 C82.00059648 25.41462196 82.00741401 27.70212984 82.01293945 29.98974609 C82.01869348 31.58294679 82.02445119 33.17614747 82.0302124 34.76934814 C82.04071817 38.11169761 82.04656324 41.45402306 82.05004883 44.79638672 C82.05552486 49.06789296 82.07953539 53.33907904 82.10802078 57.61048508 C82.1266979 60.90314645 82.13185551 64.1957316 82.1333847 67.48844147 C82.13640162 69.06242874 82.14439757 70.63641499 82.15756989 72.21035004 C82.17473303 74.41928519 82.17272537 76.62744997 82.16625977 78.83642578 C82.17172821 80.71814484 82.17172821 80.71814484 82.17730713 82.63787842 C81.55877923 88.62129607 79.54231817 93.17789645 74.80981445 97.06787109 C74.12918945 97.64279297 73.44856445 98.21771484 72.74731445 98.81005859 C68.8880513 101.56445205 65.31334435 101.34027224 60.71142578 101.38574219 C59.99232025 101.39391968 59.27321472 101.40209717 58.53231812 101.41052246 C56.15216901 101.43533532 53.77207951 101.45188422 51.3918457 101.46630859 C50.57713995 101.47163227 49.7624342 101.47695595 48.92304039 101.48244095 C44.6085339 101.50915807 40.29405617 101.52853525 35.97949219 101.54296875 C32.41673014 101.55629295 28.85454288 101.58411881 25.29199219 101.625 C20.98313434 101.67444077 16.67479671 101.69910392 12.36566734 101.70619583 C10.72827157 101.71288936 9.09088653 101.72806187 7.45365334 101.75208664 C-9.10221974 101.98111566 -9.10221974 101.98111566 -15.19018555 96.19287109 C-20.31465759 90.93354453 -21.43695441 85.49782049 -21.46484375 78.3046875 C-21.47251015 77.31315422 -21.47251015 77.31315422 -21.48033142 76.30158997 C-21.49414714 74.13244382 -21.49327662 71.96361832 -21.4909668 69.79443359 C-21.49485846 68.27517582 -21.4991941 66.75591913 -21.50395203 65.23666382 C-21.51139723 62.0576423 -21.51113558 58.87873186 -21.50585938 55.69970703 C-21.50007042 51.64245962 -21.51698981 47.58566956 -21.54020405 43.5284977 C-21.55499627 40.39191059 -21.5558056 37.25543219 -21.55269432 34.11881638 C-21.55320489 32.6238146 -21.55839265 31.12880631 -21.56850624 29.63383865 C-21.67147048 12.28478463 -21.67147048 12.28478463 -16.25268555 5.91552734 C-15.23174805 5.09375 -15.23174805 5.09375 -14.19018555 4.25537109 C-13.50956055 3.68947266 -12.82893555 3.12357422 -12.12768555 2.54052734 C-8.2226692 -0.17566346 -4.62357103 0.04506876 0 0 Z " fill="#000000" transform="translate(21.190185546875,0.80712890625)"/>
<path d="M0 0 C0.66 0 1.32 0 2 0 C2.30292969 0.79921875 2.60585938 1.5984375 2.91796875 2.421875 C5.43265489 9.01422145 8.02866017 15.5573516 10.7890625 22.05078125 C11.67295873 24.20349626 12.50902492 26.37602879 13.31640625 28.55859375 C14.63617783 32.11633049 16.07947051 35.6116681 17.55078125 39.109375 C18.00130859 40.19347656 18.45183594 41.27757812 18.91601562 42.39453125 C19.85544287 44.65178441 20.80618386 46.90435877 21.76757812 49.15234375 C22.21166016 50.23128906 22.65574219 51.31023438 23.11328125 52.421875 C23.52360596 53.39737305 23.93393066 54.37287109 24.35668945 55.37792969 C25 58 25 58 24.24926758 60.21655273 C22.56414995 62.62221705 20.58846085 64.38343118 18.375 66.3125 C17.48425781 67.09367187 16.59351563 67.87484375 15.67578125 68.6796875 C14.79277344 69.44539063 13.90976562 70.21109375 13 71 C12.23042969 71.68320313 11.46085937 72.36640625 10.66796875 73.0703125 C7.84304653 75.57553109 5.14759514 77.90160324 2 80 C-2.55249741 79.50391944 -5.16391289 76.358875 -8.3125 73.3125 C-9.46743023 72.21085431 -10.62366879 71.11057852 -11.78125 70.01171875 C-12.61076172 69.2235376 -12.61076172 69.2235376 -13.45703125 68.41943359 C-15.32277648 66.70306607 -17.29919019 65.1638618 -19.3125 63.625 C-22 61 -22 61 -22.5625 57.8125 C-22 55 -22 55 -20 52 C-19.49997657 50.65758859 -19.04380207 49.298413 -18.62109375 47.9296875 C-16.99912133 42.89373297 -15.05991547 38.02195048 -13.0625 33.125 C-10.57224231 26.96735397 -8.16118135 20.80412812 -5.94140625 14.54296875 C-4.12279384 9.63045142 -2.05194922 4.81871683 0 0 Z " fill="#F6F5F1" transform="translate(50,11)"/>
</svg>
